<?xml version="1.0" standalone="no"?>
<!DOCTYPE svg PUBLIC "-//W3C//DTD SVG 20010904//EN"
 "http://www.w3.org/TR/2001/REC-SVG-20010904/DTD/svg10.dtd">
<svg version="1.0" xmlns="http://www.w3.org/2000/svg"
 width="211.000000pt" height="77.000000pt" viewBox="0 0 211.000000 77.000000"
 preserveAspectRatio="xMidYMid meet">
<metadata>
Created by potrace 1.16, written by Peter Selinger 2001-2019
</metadata>
<g transform="translate(0.000000,77.000000) scale(0.100000,-0.100000)"
fill="#795280" stroke="none">
<path d="M476 639 c-21 -24 -50 -68 -63 -97 -14 -29 -28 -51 -31 -50 -65 35
-126 59 -138 54 -13 -5 -15 -21 -11 -94 2 -48 8 -97 12 -109 7 -22 5 -23 -43
-23 -56 0 -82 -7 -82 -23 0 -22 61 -103 96 -126 51 -35 134 -50 214 -39 85 12
86 12 152 1 130 -22 238 20 295 117 18 29 31 56 28 58 -3 3 -33 8 -67 11 -49
5 -62 10 -59 21 3 8 7 57 9 107 5 111 -1 116 -81 79 -29 -14 -56 -26 -60 -26
-3 0 -15 20 -27 45 -12 25 -41 66 -64 92 l-42 46 -38 -44z m132 -109 l23 -43
-41 -39 c-22 -21 -48 -55 -58 -74 l-18 -36 -29 44 c-16 24 -42 55 -58 70 l-29
28 32 57 c18 32 44 71 59 86 l26 29 35 -40 c19 -21 45 -59 58 -82z m-295 -25
c113 -53 187 -148 187 -240 0 -47 -12 -58 -30 -26 -12 23 -100 67 -152 77 -21
3 -43 13 -50 21 -13 16 -25 193 -14 193 4 0 31 -11 59 -25z m457 -49 c0 -85
-14 -136 -39 -136 -41 0 -123 -33 -161 -65 -23 -19 -43 -35 -45 -35 -1 0 -3
21 -3 46 -2 58 26 113 83 169 37 35 131 92 158 94 4 1 7 -32 7 -73z m-419
-167 c47 -12 114 -61 134 -98 16 -33 22 -30 -76 -45 -51 -9 -138 10 -180 40
-33 23 -89 90 -89 106 0 17 143 15 211 -3z m529 1 c0 -23 -71 -97 -114 -119
-38 -19 -64 -25 -115 -25 -75 0 -121 10 -121 25 0 20 45 70 86 94 23 14 66 28
94 32 61 9 170 5 170 -7z"/>
</g>
</svg>
